<?xml version="1.0" encoding="UTF-8"?>
<svg viewBox="0 0 120 120" xmlns="http://www.w3.org/2000/svg" xmlns:cc="http://creativecommons.org/ns#" xmlns:dc="http://purl.org/dc/elements/1.1/" xmlns:rdf="http://www.w3.org/1999/02/22-rdf-syntax-ns#" xmlns:xlink="http://www.w3.org/1999/xlink">
<defs>
<radialGradient id="a" cx="87.45" cy="83.062" r="152.41" gradientTransform="matrix(.47615 -.085328 .090394 .50347 -212.32 -27.063)" gradientUnits="userSpaceOnUse">
<stop stop-color="#fff" offset="0"/>
<stop stop-color="#b2b2ff" offset="1"/>
</radialGradient>
</defs>
<g transform="translate(0,-177)">
<g transform="matrix(.36875 0 0 .36875 143.59 223.79)">
<ellipse cx="-230.4" cy="34.33" rx="148.69" ry="146.83" fill="url(#a)" opacity=".33" stroke="#4a87c7" stroke-width="4.1676"/>
<path d="m-231.17-113.42a148.91 148.91 0 0 0-148.91 148.91 148.91 148.91 0 0 0 148.91 148.91 148.91 148.91 0 0 0 148.91-148.91 148.91 148.91 0 0 0-148.91-148.91zm2.4055 23.172a122.26 126.27 0 0 1 15.574 1.156 218.56 112.39 78.859 0 1 11.484 44.731 218.56 112.39 78.859 0 1 6.875 93.804 112.39 218.56 76.98 0 1-155.71-23.4 122.26 126.27 0 0 1 121.78-116.29zm43.166 8.2915a122.26 126.27 0 0 1 78.868 111.28 112.39 218.56 76.98 0 1-43.168 12.521 112.39 218.56 76.98 0 1-20.376 4.0685 218.56 112.39 78.859 0 0-7.0518-93.844 218.56 112.39 78.859 0 0-8.2718-34.023zm-164.79 129.76a112.39 218.56 76.98 0 0 153.36 26.619 218.56 112.39 78.859 0 1-31.921 87.868 122.26 126.27 0 0 1-121.44-114.49zm242.26 7.7572a122.26 126.27 0 0 1-96.641 104.16 218.56 112.39 78.859 0 0 32.233-88.51 112.39 218.56 76.98 0 0 27.004-5.1134 112.39 218.56 76.98 0 0 37.404-10.533z" fill="#fff" opacity=".5"/>
</g>
</g>
</svg>
