<?xml version="1.0" encoding="UTF-8"?>
<svg version="1.1" viewBox="0 0 210 297" xmlns="http://www.w3.org/2000/svg" xmlns:cc="http://creativecommons.org/ns#" xmlns:dc="http://purl.org/dc/elements/1.1/" xmlns:rdf="http://www.w3.org/1999/02/22-rdf-syntax-ns#" xmlns:xlink="http://www.w3.org/1999/xlink">
<defs>
<radialGradient id="a" cx="-236.41" cy="74.877" r="3.449" gradientTransform="matrix(1.2236 -4.1173 3.9039 1.0724 8.243 -1042.1)" gradientUnits="userSpaceOnUse">
<stop stop-color="#fff" offset="0"/>
<stop stop-color="#4148b3" offset="1"/>
</radialGradient>
</defs>
<g>
<path d="m2.5686 3.8229a11.606 0.092213 0 0 1-0.10687 0.012485l-11.499-0.012485z" fill="#fff" opacity=".5"/>
<ellipse cx="17.045" cy="15.806" rx="14.004" ry="13.463" fill="url(#a)"/>
<path d="m14.131 2.3359a12.181 18.074 0 0 0-3.3067 12.343 12.181 18.074 0 0 0 4.8824 14.441 14.004 13.463 0 0 0 1.6344-0.31064 12.181 18.074 0 0 1-4.6264-14.15 12.181 18.074 0 0 1 3.2081-12.17 14.004 13.463 0 0 0-1.7918-0.15333z" fill="#fff"/>
<path d="m30.999 14.941a30.384 8.9982 0 0 1-14.244 1.059 30.384 8.9982 0 0 1-13.535-0.95613 14.004 13.463 0 0 0-0.10922 1.5411 30.384 8.9982 0 0 0 13.713 0.98034 30.384 8.9982 0 0 0 14.29-1.0651 14.004 13.463 0 0 0-0.11531-1.5593z" fill="#fff"/>
</g>
</svg>
